<svg width="511.269" height="511.269" xmlns="http://www.w3.org/2000/svg">

 <g>
  <title>background</title>
  <rect fill="none" id="canvas_background" height="402" width="582" y="-1" x="-1"/>
 </g>
 <g>
  <title>Layer 1</title>
  <path id="svg_1" fill="#7f7f7f" d="m140.367004,465.066986c-23.467003,-26.666992 -46.933006,-54.399994 -61.867004,-87.46698c-14.932999,-35.199982 -19.200001,-75.733002 -11.733002,-114.132996s24.533005,-74.667007 49.067001,-105.600006c-2.133003,26.666992 7.467003,54.400009 25.600006,74.666992c-10.667007,-51.199997 6.399994,-106.667 40.53299,-147.199989s81.067001,-67.201008 130.133011,-85.334007c-24.53299,25.6 -27.733002,66.133003 -18.132996,100.266998c9.600006,34.132996 29.867004,64 48,94.932999c18.132996,30.932999 35.200012,62.932999 36.266998,98.133011c9.600006,-18.132996 20.266998,-36.266998 26.666992,-56.533005c6.399994,-20.266998 9.600006,-41.600006 4.266998,-61.867004c19.200012,23.466995 29.867004,46.932999 35.200012,76.800003c5.333008,29.867004 4.266998,60.799988 1.066986,90.666992c-4.266998,33.067017 -12.799988,67.200012 -30.932983,94.933014c-21.333008,33.066986 -55.46701,56.53299 -92.800018,69.332977c-66.134995,11.734039 -131.201996,2.134003 -181.334991,-41.598999z"/>
  <path id="svg_2" fill="#cccccc" d="m221.434006,504.53299c87.465988,34.134003 173.865982,-69.332977 125.865982,-149.332977c0,-1.067017 -1.066986,-1.067017 -1.066986,-2.132996c4.266998,43.733002 -6.400024,75.733002 -26.667023,93.867004c10.667023,-25.600006 3.200012,-55.46701 -9.599976,-81.067017c-12.800018,-24.53299 -30.933014,-46.932983 -44.800018,-70.399994c-13.866989,-24.53299 -24.53299,-52.266998 -18.132996,-80c-25.600006,19.199997 -43.733002,48 -51.199997,78.932983c-7.466995,30.933014 -3.199997,65.067017 10.666992,93.867004c-16,-11.733002 -27.733002,-30.932983 -28.799988,-51.200012c-17.067001,20.267029 -27.733002,46.933014 -26.667007,73.600006c0.001007,41.600006 33.067017,78.933014 70.401016,93.865997z"/>
  <g id="svg_3"/>
  <g id="svg_4"/>
  <g id="svg_5"/>
  <g id="svg_6"/>
  <g id="svg_7"/>
  <g id="svg_8"/>
  <g id="svg_9"/>
  <g id="svg_10"/>
  <g id="svg_11"/>
  <g id="svg_12"/>
  <g id="svg_13"/>
  <g id="svg_14"/>
  <g id="svg_15"/>
  <g id="svg_16"/>
  <g id="svg_17"/>
 </g>
</svg>