<?xml version="1.0" standalone="no"?>
<!DOCTYPE svg PUBLIC "-//W3C//DTD SVG 20010904//EN"
 "http://www.w3.org/TR/2001/REC-SVG-20010904/DTD/svg10.dtd">
<svg version="1.0" xmlns="http://www.w3.org/2000/svg"
 width="612.000000pt" height="612.000000pt" viewBox="0 0 612.000000 612.000000"
 preserveAspectRatio="xMidYMid meet">

<g transform="translate(0.000000,612.000000) scale(0.100000,-0.100000)"
fill="#000000" stroke="none">
<path d="M2200 5774 c-103 -25 -209 -82 -270 -145 -26 -27 -75 -102 -93 -144
-10 -22 -22 -48 -27 -57 -6 -10 -10 -40 -10 -68 0 -63 -9 -67 -104 -52 -254
42 -505 -141 -557 -406 -12 -61 -10 -94 12 -257 16 -123 16 -130 -1 -128 -8 1
-41 7 -72 14 -50 11 -68 11 -135 -5 -126 -29 -189 -62 -268 -141 -66 -66 -97
-115 -135 -215 -18 -47 -25 -223 -10 -263 6 -18 16 -68 21 -112 5 -44 16 -120
24 -170 8 -49 20 -128 25 -173 5 -46 13 -89 17 -95 3 -5 9 -40 13 -76 7 -63
21 -155 40 -266 18 -100 31 -191 39 -261 5 -39 11 -77 16 -83 4 -7 11 -47 15
-89 7 -70 13 -110 40 -267 21 -124 33 -205 40 -265 4 -36 11 -72 14 -81 4 -9
11 -47 16 -85 10 -78 27 -159 40 -189 5 -11 11 -31 13 -45 5 -27 22 -76 44
-127 7 -17 13 -36 13 -41 0 -6 11 -32 25 -58 14 -26 25 -53 25 -59 0 -7 7 -18
15 -25 8 -7 15 -19 15 -26 0 -8 25 -54 55 -102 31 -48 61 -96 68 -107 6 -11
30 -43 52 -72 22 -28 48 -62 58 -75 37 -49 215 -223 272 -266 33 -25 62 -49
65 -52 7 -8 122 -85 140 -93 8 -4 29 -16 45 -26 44 -28 168 -89 260 -126 22
-9 48 -20 57 -25 10 -6 28 -10 41 -10 13 0 32 -7 43 -15 10 -8 31 -15 45 -15
15 0 43 -7 62 -15 20 -8 50 -15 66 -15 17 0 40 -4 53 -9 13 -5 96 -17 185 -27
154 -16 170 -16 315 0 84 9 167 19 183 22 109 18 135 23 153 33 11 6 33 11 49
11 15 0 37 7 47 15 11 8 30 15 43 15 13 0 31 4 41 10 9 5 35 16 57 25 97 40
179 79 240 115 28 16 57 33 65 37 8 4 38 24 67 45 29 21 57 38 63 38 5 0 10 4
10 9 0 5 24 25 53 45 58 41 258 239 302 301 15 22 33 45 40 50 11 10 82 115
98 145 4 8 21 38 37 65 17 28 46 84 66 125 19 41 39 83 45 92 5 10 9 26 9 35
0 10 7 27 15 37 8 11 15 27 15 37 0 9 7 30 15 45 8 16 15 41 15 55 0 14 3 29
7 33 11 10 32 108 43 191 4 39 13 90 19 115 16 67 13 342 -4 420 -8 36 -14 86
-15 111 0 25 -4 59 -10 75 -9 29 -21 102 -40 260 -5 45 -14 93 -20 108 -5 15
-10 46 -10 69 0 23 -5 59 -11 80 -5 20 -14 70 -20 110 -5 39 -16 115 -24 167
-9 52 -20 127 -25 167 -4 40 -12 78 -16 85 -4 6 -11 44 -15 82 -13 134 -40
256 -69 311 -52 102 -140 185 -255 240 -57 27 -67 29 -197 29 -141 0 -140 0
-241 -51 -21 -11 -31 -12 -41 -3 -14 11 -16 22 -35 165 -5 44 -15 96 -21 115
-5 19 -10 52 -10 72 0 20 -7 63 -15 95 -8 31 -15 74 -15 95 0 21 -4 57 -9 80
-9 40 -21 110 -41 233 -11 69 -27 109 -78 187 -42 66 -106 131 -147 149 -11 5
-27 13 -35 17 -81 46 -121 55 -235 55 -114 0 -155 -9 -235 -55 -50 -28 -63
-23 -92 39 -33 70 -140 173 -218 210 -117 55 -223 70 -320 47z m177 -294 c21
-11 52 -32 68 -48 55 -52 59 -63 85 -252 6 -41 15 -88 20 -104 6 -16 10 -52
10 -80 0 -28 7 -73 15 -100 8 -27 15 -68 15 -90 0 -23 4 -57 10 -76 9 -34 23
-127 40 -265 5 -38 14 -86 19 -105 6 -19 11 -54 11 -77 0 -23 5 -54 10 -69 6
-15 15 -63 20 -108 5 -45 17 -121 25 -171 8 -49 19 -125 24 -167 5 -43 13 -82
16 -88 4 -6 10 -43 15 -83 21 -181 47 -322 67 -364 20 -40 73 -73 119 -73 40
0 107 39 125 72 17 31 14 164 -6 239 -8 34 -15 79 -15 102 0 23 -7 64 -15 91
-8 27 -15 68 -15 91 0 23 -4 55 -10 71 -9 27 -20 100 -40 271 -5 40 -12 78
-16 85 -4 6 -11 44 -15 82 -3 39 -12 100 -18 136 -7 36 -16 94 -21 130 -5 36
-15 94 -21 130 -6 36 -15 94 -20 130 -4 36 -12 83 -18 105 -17 67 -14 202 7
238 43 77 110 117 197 117 74 0 106 -15 161 -72 43 -45 49 -62 65 -168 6 -36
14 -87 19 -115 20 -115 33 -204 40 -266 4 -36 10 -71 14 -77 3 -6 11 -46 16
-89 5 -43 16 -123 25 -178 9 -55 20 -131 25 -170 5 -38 14 -86 19 -105 6 -19
11 -53 11 -76 0 -23 4 -54 10 -70 9 -26 16 -77 39 -259 4 -33 13 -88 19 -122
7 -35 17 -91 24 -125 6 -35 15 -90 19 -123 4 -33 14 -103 23 -155 23 -134 36
-249 30 -265 -3 -7 -22 -15 -42 -18 -20 -2 -53 -10 -72 -17 -87 -32 -118 -44
-168 -66 -29 -13 -55 -24 -57 -24 -11 0 -191 -114 -256 -163 -61 -45 -189
-170 -234 -229 -51 -66 -69 -94 -107 -168 -56 -112 -68 -146 -68 -203 0 -42 4
-51 41 -87 38 -37 45 -40 98 -40 47 0 61 5 86 28 17 15 35 38 42 52 6 14 26
57 44 95 31 66 66 119 116 175 13 14 23 28 23 31 0 6 30 32 155 138 12 10 27
20 35 24 8 4 29 16 45 26 31 20 90 53 122 69 10 5 33 16 51 25 19 9 40 17 47
17 7 0 26 6 42 14 15 8 46 19 68 24 116 28 182 42 198 42 29 0 71 29 90 62 19
34 23 140 7 184 -6 15 -15 62 -20 103 -5 42 -16 119 -25 171 -8 52 -19 129
-24 170 -6 41 -15 91 -21 110 -5 19 -10 54 -10 77 0 23 -5 54 -10 68 -9 25
-18 83 -40 260 -5 39 -6 92 -3 120 5 41 13 56 52 95 38 37 57 48 108 59 86 19
142 2 203 -59 37 -37 48 -57 63 -115 9 -38 17 -87 17 -107 0 -20 5 -49 10 -64
6 -15 15 -63 20 -108 5 -45 17 -121 25 -171 8 -49 19 -125 24 -167 5 -43 12
-82 16 -88 4 -6 10 -45 15 -88 8 -72 19 -144 40 -267 26 -155 33 -196 41 -260
4 -38 13 -90 18 -115 13 -58 13 -381 0 -440 -5 -25 -14 -70 -19 -100 -10 -65
-29 -138 -41 -162 -5 -10 -9 -26 -9 -35 0 -10 -7 -31 -15 -47 -8 -15 -15 -36
-15 -46 0 -10 -7 -23 -15 -30 -8 -7 -15 -18 -15 -25 0 -28 -132 -264 -152
-273 -5 -2 -8 -8 -8 -14 0 -16 -142 -188 -201 -243 -30 -28 -76 -68 -104 -90
-27 -22 -52 -43 -55 -46 -7 -8 -172 -114 -190 -122 -8 -4 -33 -18 -55 -32 -22
-13 -48 -24 -57 -25 -10 0 -18 -4 -18 -10 0 -5 -8 -10 -18 -10 -10 0 -27 -7
-38 -15 -10 -8 -28 -15 -40 -15 -11 0 -29 -7 -40 -15 -10 -8 -27 -15 -38 -15
-10 0 -39 -7 -65 -15 -189 -59 -480 -82 -650 -51 -47 8 -99 17 -116 20 -92 15
-139 26 -149 36 -5 5 -20 10 -33 10 -12 0 -39 7 -60 16 -21 9 -47 20 -58 24
-36 14 -220 104 -225 111 -3 4 -24 17 -47 29 -24 12 -43 26 -43 31 0 5 -5 9
-11 9 -16 0 -153 111 -232 188 -72 70 -216 254 -260 332 -26 45 -77 149 -101
205 -7 17 -21 47 -30 68 -9 21 -16 46 -16 55 0 10 -4 22 -9 27 -10 11 -28 84
-42 168 -5 33 -12 63 -15 68 -3 6 -9 42 -14 82 -8 68 -20 149 -40 262 -19 111
-33 203 -40 265 -4 36 -13 83 -19 105 -6 22 -11 58 -11 81 0 23 -4 54 -10 70
-10 29 -21 103 -40 262 -5 46 -13 89 -17 95 -3 5 -9 40 -13 76 -7 63 -21 155
-40 266 -16 88 -31 188 -40 260 -5 39 -14 88 -19 110 -17 66 -14 216 6 245 71
107 188 149 278 102 43 -24 95 -64 95 -75 0 -5 7 -15 15 -23 8 -9 15 -27 15
-40 0 -14 4 -33 9 -42 9 -17 24 -111 41 -263 5 -41 14 -88 20 -103 5 -15 10
-47 10 -71 0 -24 5 -56 10 -71 6 -15 15 -63 20 -108 19 -158 31 -231 40 -260
6 -16 10 -50 10 -75 0 -25 7 -68 15 -95 8 -27 15 -65 15 -85 0 -50 48 -107
101 -121 76 -21 141 14 174 93 14 34 14 43 0 96 -8 32 -15 76 -15 97 0 22 -4
55 -10 74 -9 33 -22 119 -40 260 -5 36 -13 81 -19 100 -6 19 -11 56 -11 82 0
26 -5 59 -10 74 -6 15 -15 62 -20 103 -21 172 -30 230 -40 256 -5 14 -10 48
-10 74 0 26 -7 73 -15 104 -8 32 -15 75 -15 97 0 21 -5 51 -10 66 -6 15 -15
64 -21 108 -20 170 -28 222 -38 256 -25 81 -6 153 60 224 40 43 93 66 156 66
50 0 84 -13 136 -53 59 -46 84 -120 107 -322 4 -38 13 -86 19 -105 6 -19 11
-56 11 -81 0 -25 4 -59 10 -75 9 -28 22 -108 40 -259 5 -38 14 -86 19 -105 6
-19 11 -54 11 -77 0 -23 5 -54 10 -69 6 -15 15 -63 20 -108 19 -158 31 -231
40 -260 6 -16 10 -47 10 -70 0 -23 7 -66 15 -96 8 -30 15 -75 15 -100 0 -54
27 -129 55 -152 11 -9 37 -25 58 -34 35 -16 39 -16 80 2 23 10 54 32 69 49 25
27 28 38 28 102 0 39 -5 84 -11 100 -6 15 -15 62 -20 103 -5 41 -16 118 -24
170 -9 52 -20 129 -25 170 -5 41 -14 91 -19 110 -6 19 -11 54 -11 77 0 23 -5
54 -10 69 -6 15 -15 62 -20 103 -19 158 -29 221 -39 258 -6 21 -11 56 -11 78
0 22 -5 56 -11 75 -5 19 -14 67 -19 105 -9 75 -26 188 -40 270 -69 398 -68
443 2 514 74 76 171 100 245 61z"/>
</g>
</svg>
