<?xml version="1.0" encoding="iso-8859-1"?>
<!-- Generator: Adobe Illustrator 18.0.0, SVG Export Plug-In . SVG Version: 6.00 Build 0)  -->
<!DOCTYPE svg PUBLIC "-//W3C//DTD SVG 1.1//EN" "http://www.w3.org/Graphics/SVG/1.1/DTD/svg11.dtd">
<svg version="1.1" id="Capa_1" xmlns="http://www.w3.org/2000/svg" xmlns:xlink="http://www.w3.org/1999/xlink" x="0px" y="0px"
	 viewBox="0 0 490 490" style="enable-background:new 0 0 490 490;" xml:space="preserve">
<g>
	<path d="M453.271,179.81L293.587,20.125C280.609,7.147,263.354,0,245,0s-35.609,7.147-48.586,20.125L36.728,179.81
		c-12.919,12.919-16.601,31.431-9.609,48.311c5.227,12.619,15.315,21.663,27.718,25.426v167.742
		c0,37.888,30.824,68.712,68.711,68.712h242.925c37.888,0,68.712-30.824,68.712-68.712V253.542
		c12.387-3.765,22.471-12.809,27.695-25.422C469.873,211.241,466.191,192.729,453.271,179.81z M435.165,216.64
		c-0.859,2.075-4.354,8.846-13.239,8.846c-9.23,0-16.74,7.51-16.74,16.74v179.062c0,21.346-17.366,38.712-38.712,38.712H123.548
		c-21.346,0-38.711-17.366-38.711-38.712V242.226c0-9.23-7.51-16.74-16.763-16.74c-8.884,0-12.379-6.771-13.239-8.846
		c-0.86-2.075-3.176-9.334,3.106-15.617L217.626,41.338C224.938,34.027,234.66,30,245,30s20.062,4.027,27.374,11.338
		l159.685,159.685C438.341,207.306,436.024,214.564,435.165,216.64z"/>
	<path d="M348.517,319.399c-7.229-4.042-16.37-1.456-20.412,5.775c-16.823,30.097-48.667,48.793-83.105,48.793
		c-52.455,0-95.13-42.675-95.13-95.13l0,0h3.864c5.511,0,8.271-6.663,4.374-10.56l-18.864-18.864c-2.416-2.416-6.332-2.416-8.748,0
		l-18.864,18.864c-3.897,3.897-1.137,10.56,4.374,10.56h3.864l0,0c0,68.997,56.133,125.13,125.13,125.13
		c45.294,0,87.173-24.583,109.292-64.157C358.334,332.58,355.749,323.441,348.517,319.399z"/>
	<path d="M373.995,267.837h-3.864c0-68.998-56.133-125.131-125.13-125.131c-45.923,0-88.08,25.089-110.019,65.476
		c-3.955,7.279-1.259,16.386,6.021,20.341c7.28,3.955,16.387,1.26,20.341-6.021c16.686-30.715,48.741-49.796,83.658-49.796
		c52.455,0,95.13,42.676,95.13,95.131h-3.864c-5.511,0-8.271,6.663-4.374,10.559l18.864,18.864c2.416,2.416,6.332,2.416,8.748,0
		l18.864-18.864C382.265,274.5,379.505,267.837,373.995,267.837z"/>
</g>
<g>
</g>
<g>
</g>
<g>
</g>
<g>
</g>
<g>
</g>
<g>
</g>
<g>
</g>
<g>
</g>
<g>
</g>
<g>
</g>
<g>
</g>
<g>
</g>
<g>
</g>
<g>
</g>
<g>
</g>
</svg>
