<?xml version="1.0" encoding="iso-8859-1"?>
<!-- Generator: Adobe Illustrator 18.0.0, SVG Export Plug-In . SVG Version: 6.00 Build 0)  -->
<!DOCTYPE svg PUBLIC "-//W3C//DTD SVG 1.1//EN" "http://www.w3.org/Graphics/SVG/1.1/DTD/svg11.dtd">
<svg version="1.1" id="Capa_1" xmlns="http://www.w3.org/2000/svg" xmlns:xlink="http://www.w3.org/1999/xlink" x="0px" y="0px"
	 viewBox="0 0 490 490" style="enable-background:new 0 0 490 490;" xml:space="preserve">
<g>
	<path d="M453.271,179.81L293.586,20.125C280.608,7.147,263.353,0,245,0c-18.354,0-35.609,7.147-48.586,20.125L36.728,179.81
		c-12.919,12.919-16.601,31.431-9.609,48.311c5.227,12.619,15.315,21.663,27.718,25.426v167.742
		c0,37.888,30.824,68.712,68.711,68.712h242.925c37.888,0,68.712-30.824,68.712-68.712V253.542
		c12.387-3.765,22.471-12.809,27.695-25.422C469.873,211.241,466.19,192.729,453.271,179.81z M435.165,216.64
		c-0.86,2.075-4.355,8.846-13.239,8.846c-9.23,0-16.74,7.51-16.74,16.74v179.062c0,21.346-17.366,38.712-38.712,38.712H123.548
		c-21.346,0-38.711-17.366-38.711-38.712V242.226c0-9.23-7.51-16.74-16.763-16.74c-8.884,0-12.379-6.771-13.239-8.846
		c-0.86-2.075-3.176-9.334,3.106-15.617L217.626,41.338C224.938,34.027,234.66,30,245,30c10.34,0,20.062,4.027,27.373,11.338
		l159.686,159.685C438.341,207.306,436.024,214.565,435.165,216.64z"/>
	<path d="M172.887,268.112l20.953-20.952c3.067-3.067,0.895-8.31-3.442-8.31h-5.953v-20.343h121.109v6.037c0,8.284,6.716,15,15,15
		s15-6.716,15-15v-21.037c0-8.284-6.716-15-15-15H169.445c-8.284,0-15,6.716-15,15v35.343h-5.952c-4.337,0-6.509,5.243-3.442,8.31
		l20.953,20.952C167.904,270.013,170.987,270.013,172.887,268.112z"/>
	<path d="M323.997,276.724c-1.901-1.901-4.983-1.901-6.884,0l-20.953,20.953c-3.067,3.066-0.895,8.31,3.442,8.31h5.953v20.343
		H184.445v-6.037c0-8.284-6.716-15-15-15s-15,6.716-15,15v21.037c0,8.284,6.716,15,15,15h151.109c8.284,0,15-6.716,15-15v-35.343
		h5.952c4.337,0,6.509-5.243,3.442-8.31L323.997,276.724z"/>
</g>
<g>
</g>
<g>
</g>
<g>
</g>
<g>
</g>
<g>
</g>
<g>
</g>
<g>
</g>
<g>
</g>
<g>
</g>
<g>
</g>
<g>
</g>
<g>
</g>
<g>
</g>
<g>
</g>
<g>
</g>
</svg>
