<?xml version="1.0" encoding="iso-8859-1"?>
<!-- Generator: Adobe Illustrator 18.0.0, SVG Export Plug-In . SVG Version: 6.00 Build 0)  -->
<!DOCTYPE svg PUBLIC "-//W3C//DTD SVG 1.1//EN" "http://www.w3.org/Graphics/SVG/1.1/DTD/svg11.dtd">
<svg version="1.1" id="Capa_1" xmlns="http://www.w3.org/2000/svg" xmlns:xlink="http://www.w3.org/1999/xlink" x="0px" y="0px"
	 viewBox="0 0 372.05 372.05" style="enable-background:new 0 0 372.05 372.05;" xml:space="preserve">
<g>
	<path d="M35.658,140.048l39.377,12.24l12.24,39.376c1.695,5.453,6.338,9.47,11.977,10.363c0.785,0.124,1.57,0.185,2.349,0.185
		c4.819,0,9.407-2.326,12.245-6.339l23.809-33.667l41.232,0.527c5.666,0.066,10.964-3.102,13.557-8.189
		c2.592-5.087,2.071-11.205-1.344-15.78l-24.662-33.049l13.242-39.051c1.834-5.407,0.438-11.387-3.599-15.424
		c-4.036-4.038-10.017-5.434-15.424-3.599l-39.051,13.242L88.56,36.223c-4.575-3.415-10.693-3.938-15.781-1.344
		c-5.087,2.593-8.262,7.848-8.188,13.557l0.527,41.232L31.45,113.477c-4.662,3.297-7.047,8.954-6.154,14.594
		C26.188,133.71,30.206,138.353,35.658,140.048z M88.877,109.609c4.031-2.851,6.401-7.502,6.338-12.438l-0.239-18.727l15.009,11.2
		c3.957,2.952,9.112,3.769,13.789,2.184l17.736-6.014l-6.015,17.735c-1.585,4.676-0.769,9.832,2.184,13.788l11.201,15.01
		l-18.726-0.239c-0.064-0.001-0.128-0.001-0.192-0.001c-4.865,0-9.433,2.36-12.247,6.339l-10.813,15.291l-5.56-17.884
		c-1.465-4.715-5.157-8.406-9.871-9.872l-17.884-5.559L88.877,109.609z"/>
	<path d="M257.783,1.327c-5.685-2.563-12.362-1.343-16.772,3.067s-5.631,11.088-3.067,16.772
		c9.56,21.198,14.406,43.839,14.406,67.293c0,90.369-73.521,163.891-163.891,163.891c-23.454,0-46.094-4.847-67.292-14.406
		c-5.684-2.563-12.363-1.343-16.772,3.067c-4.41,4.409-5.631,11.088-3.067,16.772c31.301,69.414,100.712,114.266,176.833,114.266
		c106.912,0,193.891-86.979,193.891-193.89C372.05,102.039,327.197,32.628,257.783,1.327z M178.159,342.049
		c-51.398,0-99.182-24.196-129.816-63.839c13.085,2.754,26.485,4.14,40.116,4.14c106.912,0,193.891-86.979,193.891-193.891
		c0-13.631-1.386-27.03-4.14-40.116c39.644,30.634,63.84,78.418,63.84,129.816C342.05,268.529,268.528,342.049,178.159,342.049z"/>
</g>
<g>
</g>
<g>
</g>
<g>
</g>
<g>
</g>
<g>
</g>
<g>
</g>
<g>
</g>
<g>
</g>
<g>
</g>
<g>
</g>
<g>
</g>
<g>
</g>
<g>
</g>
<g>
</g>
<g>
</g>
</svg>
