<?xml version="1.0" standalone="no"?>
<!DOCTYPE svg PUBLIC "-//W3C//DTD SVG 20010904//EN"
 "http://www.w3.org/TR/2001/REC-SVG-20010904/DTD/svg10.dtd">
<svg version="1.0" xmlns="http://www.w3.org/2000/svg"
 width="342.000000pt" height="398.000000pt" viewBox="0 0 342.000000 398.000000"
 preserveAspectRatio="xMidYMid meet">
<metadata>
Created by potrace 1.15, written by Peter Selinger 2001-2017
</metadata>
<g transform="translate(0.000000,398.000000) scale(0.100000,-0.100000)"
fill="#000000" stroke="none">
<path d="M780 3855 c-251 -54 -452 -221 -547 -455 -54 -135 -53 -99 -53 -1411
0 -1186 0 -1218 20 -1295 67 -263 250 -457 515 -546 l70 -23 895 -3 c1022 -3
984 -6 1155 77 114 56 209 135 279 235 59 83 82 130 111 233 l25 88 -2 498 -3
498 -140 -101 -140 -101 -5 -382 c-7 -430 -8 -437 -83 -549 -55 -82 -146 -151
-235 -178 -66 -20 -86 -20 -948 -18 l-880 3 -77 38 c-100 49 -165 114 -214
214 l-38 77 0 1241 0 1241 37 75 c61 124 166 212 292 245 37 10 123 14 314 14
l262 0 0 -43 c0 -141 93 -261 235 -302 75 -22 141 -15 222 25 100 50 159 138
170 257 l6 64 296 -3 296 -3 75 -36 c90 -43 158 -103 204 -182 56 -95 66 -160
66 -449 l1 -253 120 -95 c66 -52 131 -103 145 -114 l25 -18 -3 428 -3 429 -28
80 c-41 117 -100 210 -186 295 -115 112 -236 177 -387 206 -109 20 -1766 19
-1864 -1z"/>
<path d="M752 2723 l3 -148 522 -3 523 -2 0 150 0 150 -525 0 -526 0 3 -147z"/>
<path d="M2585 2528 c-33 -18 -35 -28 -35 -155 l0 -123 -380 0 -380 0 0 -150
0 -150 380 0 380 0 0 -122 c0 -68 4 -128 8 -134 16 -24 51 -35 74 -23 55 29
528 393 533 410 4 10 4 27 0 38 -6 20 -507 404 -540 414 -11 4 -29 1 -40 -5z"/>
<path d="M750 2100 l0 -150 320 0 320 0 0 150 0 150 -320 0 -320 0 0 -150z"/>
<path d="M750 1480 l0 -150 320 0 320 0 0 150 0 150 -320 0 -320 0 0 -150z"/>
<path d="M750 855 l0 -145 605 0 605 0 0 145 0 145 -605 0 -605 0 0 -145z"/>
</g>
</svg>
