<?xml version="1.0" standalone="no"?>
<!DOCTYPE svg PUBLIC "-//W3C//DTD SVG 20010904//EN"
 "http://www.w3.org/TR/2001/REC-SVG-20010904/DTD/svg10.dtd">
<svg version="1.0" xmlns="http://www.w3.org/2000/svg"
 width="612.000000pt" height="612.000000pt" viewBox="0 0 612.000000 612.000000"
 preserveAspectRatio="xMidYMid meet">
<metadata>
Created by potrace 1.15, written by Peter Selinger 2001-2017
</metadata>
<g transform="translate(0.000000,612.000000) scale(0.100000,-0.100000)"
fill="#000000" stroke="none">
<path d="M1560 5781 l0 -340 -47 -7 c-112 -16 -286 -88 -403 -167 -102 -69
-233 -211 -306 -332 -52 -85 -116 -265 -126 -350 l-3 -30 -337 -3 -338 -2 0
-135 0 -135 338 -2 337 -3 7 -40 c26 -158 91 -305 196 -442 154 -203 367 -337
612 -387 l65 -13 5 -359 c3 -238 9 -367 16 -384 18 -39 58 -70 97 -77 49 -8
77 1 117 37 l35 31 5 377 5 377 30 3 c17 2 59 12 95 21 181 50 340 141 463
263 21 21 43 38 48 38 5 0 8 3 7 8 -1 4 24 42 56 85 90 121 158 280 181 425
l7 42 343 0 c188 0 357 3 375 6 17 4 47 21 66 39 30 29 34 38 34 85 0 60 -19
98 -62 123 -26 15 -68 17 -393 17 l-363 0 -6 48 c-16 114 -81 274 -164 402
-45 70 -200 224 -272 272 -131 86 -277 145 -402 163 l-48 7 0 339 0 339 -135
0 -135 0 0 -339z m238 -606 c179 -27 301 -85 425 -204 138 -132 208 -273 237
-476 21 -149 -28 -355 -118 -495 -50 -77 -167 -189 -248 -237 -222 -131 -491
-145 -723 -37 -158 74 -299 217 -369 376 -132 296 -70 630 159 857 120 119
240 182 409 212 120 22 112 22 228 4z"/>
<path d="M393 5796 c-41 -23 -63 -49 -73 -86 -21 -77 -12 -89 214 -319 233
-236 266 -260 335 -241 24 6 52 24 70 45 26 30 31 44 31 87 l0 51 -222 224
c-123 124 -235 231 -250 239 -32 17 -75 17 -105 0z"/>
<path d="M2905 5795 c-45 -20 -472 -454 -481 -488 -24 -98 97 -198 184 -153
49 26 451 436 469 479 14 34 14 41 -2 79 -18 46 -33 61 -84 83 -39 18 -46 18
-86 0z"/>
<path d="M4532 3954 c-28 -19 -62 -85 -62 -118 0 -14 13 -58 29 -98 66 -168
90 -255 116 -420 28 -180 14 -457 -31 -628 -28 -104 -37 -135 -46 -145 -4 -5
-8 -15 -8 -23 0 -30 -108 -251 -168 -341 -49 -76 -122 -168 -184 -233 -16 -16
-28 -38 -28 -48 0 -13 -7 -20 -20 -20 -17 0 -36 -13 -94 -65 -31 -28 -107 -85
-157 -117 -90 -60 -311 -168 -341 -168 -8 0 -18 -4 -23 -8 -10 -9 -41 -18
-145 -46 -170 -45 -453 -59 -630 -31 -162 26 -251 51 -418 116 -86 34 -110 36
-162 9 -59 -30 -70 -52 -70 -143 0 -69 4 -88 31 -141 69 -136 163 -276 265
-393 35 -40 67 -79 71 -86 4 -7 58 -55 118 -106 61 -51 116 -100 123 -109 6
-9 12 -12 12 -7 0 4 8 1 18 -7 32 -29 227 -144 312 -185 148 -71 319 -127 465
-153 295 -53 492 -52 775 4 133 26 178 39 311 89 385 145 744 442 967 800 99
157 194 374 232 527 80 320 89 570 30 895 -26 146 -82 317 -153 465 -41 85
-156 280 -185 313 -8 9 -11 17 -7 17 5 0 2 6 -7 13 -9 6 -58 62 -109 122 -51
61 -99 114 -106 118 -7 4 -46 36 -86 71 -117 102 -257 196 -393 265 -53 27
-72 31 -141 31 -55 0 -85 -5 -101 -16z m506 -589 c154 -145 277 -330 393 -590
39 -87 85 -281 98 -414 42 -404 -47 -773 -263 -1099 -36 -53 -76 -110 -91
-127 -14 -16 -44 -52 -66 -78 -62 -72 -202 -192 -311 -263 -327 -216 -698
-305 -1098 -264 -141 15 -323 58 -415 99 -11 5 -54 24 -95 42 -85 38 -232 127
-324 196 -58 44 -290 272 -284 279 2 1 30 -1 63 -7 461 -72 898 6 1310 236 39
22 75 43 80 47 6 4 44 32 85 61 104 73 120 87 245 212 125 125 139 141 212
245 29 41 57 80 61 85 4 6 25 42 47 80 125 224 197 429 241 685 21 122 25 472
6 555 -6 28 -13 70 -17 95 l-6 45 33 -30 c18 -17 61 -57 96 -90z"/>
<path d="M760 3671 c-58 -44 -426 -424 -438 -453 -22 -51 -8 -111 34 -147 30
-27 42 -31 91 -31 l57 0 219 218 c120 119 225 229 233 244 29 56 10 128 -45
167 -38 27 -116 28 -151 2z"/>
<path d="M2484 3671 c-54 -33 -80 -112 -53 -164 6 -12 109 -120 228 -240 236
-237 252 -248 330 -227 46 12 78 47 87 95 14 74 4 88 -220 313 -116 118 -223
220 -238 228 -38 20 -97 17 -134 -5z"/>
</g>
</svg>
