<?xml version="1.0" encoding="iso-8859-1"?>
<!-- Generator: Adobe Illustrator 18.0.0, SVG Export Plug-In . SVG Version: 6.00 Build 0)  -->
<!DOCTYPE svg PUBLIC "-//W3C//DTD SVG 1.1//EN" "http://www.w3.org/Graphics/SVG/1.1/DTD/svg11.dtd">
<svg version="1.1" id="Capa_1" xmlns="http://www.w3.org/2000/svg" xmlns:xlink="http://www.w3.org/1999/xlink" x="0px" y="0px"
	 viewBox="0 0 466.342 466.342" style="enable-background:new 0 0 466.342 466.342;" xml:space="preserve">
<g>
	<path d="M279.146,237.618c-10.034,0-19.762,1.33-29.025,3.81V59.677C250.12,26.771,223.349,0,190.443,0h-30.626
		c-32.906,0-59.678,26.771-59.678,59.677v239.88c-16.334,18.355-25.258,41.743-25.258,66.537c0,27.041,10.604,52.391,29.859,71.38
		c18.912,18.65,43.851,28.869,70.373,28.868c0.478,0,0.96-0.003,1.439-0.01c18.871-0.263,36.97-5.792,52.582-15.854
		c15.069,7.526,32.053,11.77,50.011,11.77c61.931,0,112.315-50.384,112.315-112.315
		C391.461,288.002,341.076,237.618,279.146,237.618z M279.146,432.248c-45.389,0-82.315-36.926-82.315-82.315
		s36.927-82.315,82.315-82.315s82.315,36.927,82.315,82.315S324.534,432.248,279.146,432.248z M130.139,59.677
		c0-16.364,13.313-29.677,29.678-29.677h30.626c16.364,0,29.678,13.313,29.678,29.677V254.42
		c-11.556,7.168-21.721,16.372-29.991,27.109V71.604c0-8.284-6.716-15-15-15s-15,6.716-15,15v268.702
		c-8.871,5.171-14.837,14.78-14.837,25.789c0,16.479,13.358,29.837,29.837,29.837c0.517,0,1.031-0.013,1.541-0.039
		c5.986,13.295,14.486,25.224,24.89,35.177c-7.893,3.267-16.472,5.141-25.426,5.266c-18.992,0.274-36.838-6.917-50.329-20.221
		c-13.493-13.307-20.925-31.071-20.925-50.02c0-18.89,7.392-36.615,20.813-49.91c2.845-2.817,4.444-6.654,4.444-10.657V59.677z"/>
</g>
<g>
	<path d="M282.758,362.663c-1.281,1.313-2.673,2.385-4.177,3.216c-1.504,0.833-3.088,1.44-4.752,1.824
		c-1.665,0.384-3.264,0.576-4.8,0.576c-2.944,0-5.648-0.639-8.111-1.92c-2.465-1.279-4.577-2.976-6.337-5.088
		c-1.761-2.112-3.119-4.56-4.079-7.344c-0.96-2.784-1.44-5.679-1.44-8.688c0-2.688,0.415-5.391,1.248-8.112
		c0.831-2.719,2.063-5.151,3.696-7.296c1.632-2.144,3.679-3.888,6.144-5.232c2.463-1.344,5.359-2.016,8.688-2.016
		c1.535,0,3.104,0.177,4.704,0.528c1.599,0.353,3.135,0.912,4.607,1.68c1.472,0.768,2.847,1.809,4.128,3.12
		c1.279,1.313,2.367,2.928,3.265,4.848l10.176-7.008c-2.241-4.416-5.649-8-10.225-10.752c-4.576-2.751-10-4.128-16.271-4.128
		c-5.313,0-10.049,0.993-14.208,2.976c-4.161,1.984-7.68,4.576-10.561,7.776c-2.88,3.201-5.072,6.833-6.575,10.896
		c-1.505,4.065-2.257,8.176-2.257,12.336c0,4.353,0.816,8.625,2.448,12.816c1.632,4.193,3.903,7.937,6.816,11.232
		c2.911,3.297,6.384,5.969,10.416,8.016c4.032,2.049,8.479,3.072,13.344,3.072c2.751,0,5.568-0.353,8.448-1.056
		s5.583-1.728,8.111-3.072c2.528-1.344,4.801-2.991,6.816-4.944c2.016-1.951,3.567-4.208,4.656-6.768l-10.849-6.24
		C285.062,359.768,284.037,361.352,282.758,362.663z"/>
	<path d="M333.32,333.966c-0.658-1.722-1.596-3.23-2.812-4.522s-2.698-2.318-4.446-3.078c-1.748-0.76-3.712-1.14-5.89-1.14
		c-2.23,0-4.218,0.38-5.966,1.14c-1.748,0.76-3.23,1.786-4.446,3.078s-2.141,2.8-2.774,4.522c-0.634,1.723-0.949,3.547-0.949,5.472
		c0,1.875,0.315,3.674,0.949,5.396c0.634,1.723,1.559,3.23,2.774,4.522s2.698,2.331,4.446,3.116
		c1.748,0.786,3.735,1.178,5.966,1.178c2.229,0,4.218-0.392,5.966-1.178c1.748-0.785,3.23-1.824,4.446-3.116s2.14-2.799,2.773-4.522
		c0.634-1.722,0.95-3.521,0.95-5.396C334.308,337.514,333.978,335.689,333.32,333.966z M324.846,345.063
		c-1.242,1.47-2.8,2.204-4.674,2.204c-1.875,0-3.446-0.722-4.712-2.166c-1.268-1.444-1.9-3.306-1.9-5.586
		c0-2.33,0.633-4.218,1.9-5.662c1.266-1.444,2.837-2.166,4.712-2.166c1.874,0,3.432,0.722,4.674,2.166
		c1.241,1.444,1.862,3.306,1.862,5.586C326.708,341.719,326.087,343.594,324.846,345.063z"/>
</g>
<g>
</g>
<g>
</g>
<g>
</g>
<g>
</g>
<g>
</g>
<g>
</g>
<g>
</g>
<g>
</g>
<g>
</g>
<g>
</g>
<g>
</g>
<g>
</g>
<g>
</g>
<g>
</g>
<g>
</g>
</svg>
