<?xml version="1.0" standalone="no"?>
<!DOCTYPE svg PUBLIC "-//W3C//DTD SVG 20010904//EN"
 "http://www.w3.org/TR/2001/REC-SVG-20010904/DTD/svg10.dtd">
<svg version="1.0" xmlns="http://www.w3.org/2000/svg"
 width="293.000000pt" height="612.000000pt" viewBox="0 0 293.000000 612.000000"
 preserveAspectRatio="xMidYMid meet">
<metadata>
Created by potrace 1.15, written by Peter Selinger 2001-2017
</metadata>
<g transform="translate(0.000000,612.000000) scale(0.100000,-0.100000)"
fill="#000000" stroke="none">
<path d="M995 6096 c-225 -73 -404 -239 -492 -456 -55 -137 -53 -65 -53 -1812
l0 -1616 -68 -91 c-124 -165 -212 -367 -247 -565 -20 -116 -20 -346 0 -462 48
-276 185 -527 394 -726 193 -184 423 -299 685 -344 148 -25 426 -16 556 19
386 101 692 343 864 681 233 455 178 1026 -134 1414 l-50 62 0 1593 c0 1004
-4 1618 -10 1662 -35 246 -177 453 -398 582 -24 14 -80 39 -125 54 l-82 29
-385 -1 c-374 0 -387 -1 -455 -23z m826 -403 c79 -39 150 -111 187 -191 l27
-57 5 -1690 c5 -1587 6 -1692 23 -1722 9 -18 46 -65 82 -105 246 -278 298
-674 131 -1007 -164 -326 -497 -524 -856 -508 -142 6 -245 32 -365 92 -234
116 -403 319 -481 580 -24 79 -27 107 -28 235 0 120 4 160 23 230 39 148 121
295 232 414 75 82 69 -69 69 1764 0 1457 2 1655 16 1707 35 138 129 236 269
281 30 10 113 13 320 11 l280 -2 66 -32z"/>
<path d="M1341 5368 c-28 -14 -54 -37 -72 -67 l-29 -45 0 -1792 0 -1791 -41
-28 c-51 -36 -92 -88 -127 -162 -24 -51 -27 -70 -27 -158 0 -92 3 -105 32
-165 41 -84 107 -151 188 -191 83 -41 208 -51 301 -25 112 32 207 114 256 222
20 42 23 66 23 159 0 104 -2 114 -33 177 -23 46 -51 84 -92 121 l-60 54 0
1779 c0 1708 -1 1781 -19 1819 -35 76 -102 115 -198 115 -39 0 -72 -7 -102
-22z"/>
</g>
</svg>
