<?xml version="1.0" encoding="iso-8859-1"?>
<!-- Generator: Adobe Illustrator 18.0.0, SVG Export Plug-In . SVG Version: 6.00 Build 0)  -->
<!DOCTYPE svg PUBLIC "-//W3C//DTD SVG 1.1//EN" "http://www.w3.org/Graphics/SVG/1.1/DTD/svg11.dtd">
<svg version="1.1" id="Capa_1" xmlns="http://www.w3.org/2000/svg" xmlns:xlink="http://www.w3.org/1999/xlink" x="0px" y="0px"
	 viewBox="0 0 466.342 466.342" style="enable-background:new 0 0 466.342 466.342;" xml:space="preserve">
<g>
	<path d="M279.146,237.618c-10.034,0-19.763,1.33-29.025,3.81V59.677C250.12,26.771,223.349,0,190.443,0h-30.626
		c-32.906,0-59.677,26.771-59.677,59.677v239.88c-16.334,18.355-25.257,41.743-25.257,66.537c0,27.042,10.604,52.392,29.86,71.381
		c18.911,18.649,43.85,28.869,70.372,28.868c0.478,0,0.96-0.003,1.439-0.01c18.871-0.263,36.971-5.792,52.583-15.854
		c15.069,7.526,32.053,11.77,50.011,11.77c61.931,0,112.315-50.384,112.315-112.315
		C391.461,288.002,341.076,237.618,279.146,237.618z M279.146,432.248c-45.389,0-82.315-36.926-82.315-82.315
		s36.926-82.315,82.315-82.315s82.315,36.927,82.315,82.315S324.534,432.248,279.146,432.248z M130.139,59.677
		c0-16.364,13.313-29.677,29.677-29.677h30.626c16.364,0,29.678,13.313,29.678,29.677V254.42
		c-11.556,7.168-21.72,16.372-29.991,27.109V71.604c0-8.284-6.716-15-15-15s-15,6.716-15,15v268.702
		c-8.871,5.171-14.837,14.78-14.837,25.789c0,16.479,13.359,29.837,29.837,29.837c0.517,0,1.031-0.013,1.542-0.04
		c5.986,13.295,14.485,25.224,24.89,35.178c-7.893,3.267-16.472,5.141-25.427,5.266c-18.935,0.274-36.838-6.917-50.328-20.221
		c-13.494-13.307-20.925-31.071-20.925-50.021c0-18.89,7.392-36.615,20.813-49.91c2.844-2.817,4.444-6.654,4.444-10.657V59.677z"/>
	<path d="M279.146,317.545c4.694,0,8.5-3.806,8.5-8.5v-19.299c0-4.694-3.806-8.5-8.5-8.5s-8.5,3.806-8.5,8.5v19.299
		C270.646,313.74,274.451,317.545,279.146,317.545z"/>
	<path d="M308.058,329.521c2.175,0,4.351-0.83,6.01-2.49l13.646-13.646c3.32-3.319,3.32-8.701,0-12.021
		c-3.319-3.319-8.701-3.319-12.021,0l-13.646,13.646c-3.32,3.319-3.32,8.701,0,12.021
		C303.707,328.691,305.883,329.521,308.058,329.521z"/>
	<path d="M339.332,341.433h-19.298c-4.694,0-8.5,3.806-8.5,8.5s3.806,8.5,8.5,8.5h19.298c4.694,0,8.5-3.806,8.5-8.5
		S344.026,341.433,339.332,341.433z"/>
	<path d="M315.35,374.117c-3.319-3.319-8.701-3.319-12.021,0c-3.319,3.319-3.319,8.701,0,12.021l13.333,13.333
		c1.66,1.66,3.835,2.489,6.01,2.489s4.351-0.83,6.011-2.49c3.319-3.319,3.319-8.701,0-12.021L315.35,374.117z"/>
	<path d="M279.146,382.321c-4.694,0-8.5,3.806-8.5,8.5v19.298c0,4.694,3.806,8.5,8.5,8.5s8.5-3.806,8.5-8.5v-19.298
		C287.646,386.126,283.84,382.321,279.146,382.321z"/>
	<path d="M256.244,384.855c3.319-3.319,3.319-8.701,0-12.021c-3.319-3.319-8.701-3.319-12.021,0l-13.646,13.646
		c-3.319,3.319-3.319,8.701,0,12.021c1.66,1.66,3.835,2.489,6.01,2.489s4.351-0.83,6.011-2.49L256.244,384.855z"/>
	<path d="M246.758,349.933c0-4.694-3.806-8.5-8.5-8.5H218.96c-4.694,0-8.5,3.806-8.5,8.5s3.806,8.5,8.5,8.5h19.298
		C242.952,358.433,246.758,354.627,246.758,349.933z"/>
	<path d="M244.223,327.031c1.66,1.66,3.835,2.49,6.01,2.49c2.175,0,4.351-0.83,6.01-2.49c3.32-3.319,3.32-8.701,0-12.021
		l-13.646-13.646c-3.319-3.319-8.701-3.319-12.021,0c-3.32,3.319-3.32,8.701,0,12.021L244.223,327.031z"/>
	<path d="M279.146,321.519c-15.667,0-28.414,12.747-28.414,28.414s12.746,28.414,28.414,28.414s28.414-12.746,28.414-28.414
		S294.813,321.519,279.146,321.519z M279.146,361.347c-6.293,0-11.414-5.12-11.414-11.414c0-6.294,5.12-11.414,11.414-11.414
		c6.294,0,11.414,5.12,11.414,11.414C290.56,356.227,285.44,361.347,279.146,361.347z"/>
</g>
<g>
</g>
<g>
</g>
<g>
</g>
<g>
</g>
<g>
</g>
<g>
</g>
<g>
</g>
<g>
</g>
<g>
</g>
<g>
</g>
<g>
</g>
<g>
</g>
<g>
</g>
<g>
</g>
<g>
</g>
</svg>
