<?xml version="1.0" encoding="iso-8859-1"?>
<!-- Generator: Adobe Illustrator 18.0.0, SVG Export Plug-In . SVG Version: 6.00 Build 0)  -->
<!DOCTYPE svg PUBLIC "-//W3C//DTD SVG 1.1//EN" "http://www.w3.org/Graphics/SVG/1.1/DTD/svg11.dtd">
<svg version="1.1" id="Capa_1" xmlns="http://www.w3.org/2000/svg" xmlns:xlink="http://www.w3.org/1999/xlink" x="0px" y="0px"
	 viewBox="0 0 466.342 466.342" style="enable-background:new 0 0 466.342 466.342;" xml:space="preserve">
<g>
	<path d="M292.943,268.05c-14.631,0-28.51,3.274-40.952,9.119V59.677C251.991,26.771,225.219,0,192.313,0h-30.626
		c-32.906,0-59.678,26.771-59.678,59.677v239.88c-16.334,18.355-25.258,41.743-25.258,66.537c0,27.041,10.604,52.391,29.859,71.38
		c18.912,18.65,43.851,28.869,70.373,28.868c0.478,0,0.96-0.003,1.439-0.01c22.159-0.308,43.254-7.878,60.507-21.523
		c15.43,10.437,34.022,16.537,54.012,16.537c53.292,0,96.647-43.356,96.647-96.648S346.235,268.05,292.943,268.05z M292.943,431.346
		c-36.75,0-66.648-29.898-66.648-66.648s29.898-66.648,66.648-66.648s66.647,29.898,66.647,66.648S329.693,431.346,292.943,431.346z
		 M132.01,59.677C132.01,43.313,145.323,30,161.687,30h30.626c16.364,0,29.678,13.313,29.678,29.677v239.47
		c-11.724,12.681-20.105,28.496-23.716,46.034c-1.859-1.891-3.969-3.532-6.276-4.877V71.604c0-8.284-6.716-15-15-15s-15,6.716-15,15
		v268.702c-8.871,5.171-14.837,14.78-14.837,25.789c0,16.479,13.359,29.837,29.837,29.837c8.59,0,16.327-3.635,21.771-9.445
		c3.201,13.839,9.386,26.547,17.833,37.414c-11.067,7.653-24.365,12.237-38.598,12.435c-18.975,0.275-36.839-6.917-50.329-20.221
		c-13.493-13.307-20.925-31.071-20.925-50.02c0-18.89,7.392-36.615,20.813-49.91c2.845-2.817,4.444-6.654,4.444-10.657V59.677z"/>
	<path d="M305.049,385.985h-2.105v-57.351c0-5.523-4.478-10-10-10s-10,4.477-10,10v57.351h-2.106c-4.045,0-7.691,2.437-9.239,6.173
		c-1.547,3.737-0.691,8.038,2.168,10.898l12.106,12.106c1.876,1.875,4.419,2.929,7.071,2.929s5.196-1.054,7.071-2.929l12.105-12.106
		c2.859-2.86,3.715-7.161,2.167-10.898C312.739,388.422,309.094,385.985,305.049,385.985z"/>
</g>
<g>
</g>
<g>
</g>
<g>
</g>
<g>
</g>
<g>
</g>
<g>
</g>
<g>
</g>
<g>
</g>
<g>
</g>
<g>
</g>
<g>
</g>
<g>
</g>
<g>
</g>
<g>
</g>
<g>
</g>
</svg>
