<?xml version="1.0" encoding="iso-8859-1"?>
<!-- Generator: Adobe Illustrator 18.0.0, SVG Export Plug-In . SVG Version: 6.00 Build 0)  -->
<!DOCTYPE svg PUBLIC "-//W3C//DTD SVG 1.1//EN" "http://www.w3.org/Graphics/SVG/1.1/DTD/svg11.dtd">
<svg version="1.1" id="Capa_1" xmlns="http://www.w3.org/2000/svg" xmlns:xlink="http://www.w3.org/1999/xlink" x="0px" y="0px"
	 viewBox="0 0 466.342 466.342" style="enable-background:new 0 0 466.342 466.342;" xml:space="preserve">
<g>
	<path d="M292.942,268.05c-14.631,0-28.51,3.274-40.952,9.119V59.677C251.99,26.771,225.219,0,192.313,0h-30.626
		c-32.906,0-59.677,26.771-59.677,59.677v239.88c-16.334,18.355-25.257,41.743-25.257,66.537c0,27.042,10.604,52.392,29.86,71.381
		c18.911,18.649,43.85,28.869,70.372,28.868c0.478,0,0.96-0.003,1.439-0.01c22.159-0.308,43.255-7.878,60.508-21.523
		c15.43,10.437,34.022,16.537,54.012,16.537c53.292,0,96.648-43.356,96.648-96.648S346.234,268.05,292.942,268.05z M132.009,59.677
		c0-16.364,13.313-29.677,29.677-29.677h30.626c16.364,0,29.678,13.313,29.678,29.677v239.47
		c-11.724,12.681-20.105,28.496-23.716,46.034c-1.859-1.891-3.969-3.532-6.275-4.876V71.604c0-8.284-6.716-15-15-15s-15,6.716-15,15
		v268.702c-8.871,5.171-14.837,14.78-14.837,25.789c0,16.479,13.359,29.837,29.837,29.837c8.59,0,16.327-3.635,21.771-9.445
		c3.201,13.839,9.386,26.547,17.832,37.414c-11.067,7.653-24.365,12.237-38.599,12.435c-18.938,0.288-36.838-6.917-50.328-20.221
		c-13.494-13.307-20.925-31.071-20.925-50.021c0-18.89,7.392-36.615,20.813-49.91c2.844-2.817,4.444-6.654,4.444-10.657V59.677z
		 M226.294,364.698c0-36.75,29.898-66.648,66.648-66.648s66.648,29.898,66.648,66.648s-29.898,66.648-66.648,66.648
		S226.294,401.448,226.294,364.698z"/>
	<path d="M326.618,354.698h-23.676v-23.676c0-5.523-4.477-10-10-10s-10,4.477-10,10v23.676h-23.676c-5.523,0-10,4.477-10,10
		s4.477,10,10,10h23.676v23.675c0,5.523,4.477,10,10,10s10-4.477,10-10v-23.675h23.676c5.523,0,10-4.477,10-10
		S332.141,354.698,326.618,354.698z"/>
</g>
<g>
</g>
<g>
</g>
<g>
</g>
<g>
</g>
<g>
</g>
<g>
</g>
<g>
</g>
<g>
</g>
<g>
</g>
<g>
</g>
<g>
</g>
<g>
</g>
<g>
</g>
<g>
</g>
<g>
</g>
</svg>
