<?xml version="1.0" encoding="iso-8859-1"?>
<!-- Generator: Adobe Illustrator 18.0.0, SVG Export Plug-In . SVG Version: 6.00 Build 0)  -->
<!DOCTYPE svg PUBLIC "-//W3C//DTD SVG 1.1//EN" "http://www.w3.org/Graphics/SVG/1.1/DTD/svg11.dtd">
<svg version="1.1" id="Capa_1" xmlns="http://www.w3.org/2000/svg" xmlns:xlink="http://www.w3.org/1999/xlink" x="0px" y="0px"
	 viewBox="0 0 477.014 477.014" style="enable-background:new 0 0 477.014 477.014;" xml:space="preserve">
<g>
	<path d="M290.445,252.383c-14.443,0-28.258,2.742-40.952,7.73V59.678C249.493,26.771,222.722,0,189.815,0h-30.626
		c-32.906,0-59.678,26.771-59.678,59.678v239.88c-16.334,18.355-25.257,41.743-25.257,66.536c0,27.041,10.604,52.391,29.859,71.38
		c18.911,18.65,43.851,28.869,70.374,28.868c0.478,0,0.959-0.003,1.438-0.01c16.494-0.229,32.398-4.485,46.568-12.271
		c18.88,14.392,42.434,22.952,67.952,22.952c61.931,0,112.315-50.384,112.315-112.315
		C402.76,302.768,352.375,252.383,290.445,252.383z M290.445,447.014c-45.389,0-82.315-36.927-82.315-82.315
		s36.927-82.315,82.315-82.315s82.315,36.926,82.315,82.315S335.833,447.014,290.445,447.014z M129.511,59.678
		c0-16.364,13.313-29.678,29.678-29.678h30.626c16.364,0,29.677,13.313,29.677,29.678V277.7
		c-12.528,10.236-22.811,23.117-29.991,37.785V71.604c0-8.284-6.716-15-15-15s-15,6.716-15,15v268.702
		c-8.871,5.171-14.837,14.78-14.837,25.789c0,16.479,13.359,29.837,29.837,29.837c2.685,0,5.284-0.36,7.758-1.025
		c3.724,13.321,9.848,25.648,17.874,36.488c-7.672,3.064-15.974,4.821-24.627,4.941c-18.957,0.27-36.839-6.917-50.33-20.222
		c-13.493-13.307-20.924-31.071-20.924-50.02c0-18.89,7.392-36.615,20.813-49.91c2.844-2.817,4.444-6.654,4.444-10.657V59.678z"/>
	<path d="M347.908,385.454l-5.033-2.731c2.18-1.612,3.554-4.235,3.448-7.148c-0.171-4.691-4.101-8.349-8.805-8.184l-21.451,0.785
		l-6.408-3.478l6.408-3.477l21.451,0.785c0.106,0.004,0.211,0.006,0.316,0.006c4.551,0,8.321-3.604,8.489-8.189
		c0.107-2.914-1.268-5.537-3.448-7.148l5.033-2.731c4.126-2.239,5.656-7.399,3.417-11.525c-2.238-4.126-7.399-5.655-11.525-3.417
		l-5.032,2.731c-0.163-2.706-1.613-5.288-4.114-6.787c-4.026-2.412-9.248-1.104-11.66,2.922l-11.033,18.412l-7.621,4.136v-8.67
		l10.921-18.48c2.388-4.042,1.048-9.254-2.993-11.643c-2.51-1.484-5.471-1.526-7.928-0.379v-5.725c0-4.694-3.806-8.5-8.5-8.5
		s-8.5,3.806-8.5,8.5v5.726c-2.456-1.147-5.417-1.104-7.927,0.379c-4.042,2.388-5.382,7.601-2.994,11.642l10.92,18.479v8.671
		l-7.621-4.135l-11.034-18.412c-2.413-4.026-7.632-5.336-11.66-2.922c-2.501,1.499-3.951,4.081-4.114,6.787l-5.032-2.731
		c-4.126-2.239-9.286-0.709-11.525,3.417c-2.239,4.126-0.709,9.286,3.417,11.525l5.033,2.731c-2.18,1.612-3.554,4.235-3.448,7.148
		c0.167,4.586,3.938,8.19,8.489,8.189c0.104,0,0.21-0.002,0.316-0.006l21.451-0.785l6.408,3.477l-6.408,3.478l-21.45-0.785
		c-4.704-0.166-8.634,3.492-8.805,8.184c-0.107,2.914,1.268,5.537,3.448,7.148l-5.033,2.731c-4.126,2.239-5.656,7.399-3.417,11.525
		c1.54,2.838,4.461,4.447,7.478,4.447c1.37,0,2.759-0.332,4.047-1.031l5.032-2.731c0.163,2.706,1.613,5.288,4.114,6.786
		c1.368,0.82,2.874,1.21,4.361,1.21c2.889,0,5.706-1.474,7.299-4.132l11.034-18.412l7.621-4.135v8.671l-10.92,18.479
		c-2.388,4.042-1.048,9.254,2.994,11.642c2.509,1.483,5.47,1.526,7.927,0.379v5.726c0,4.694,3.806,8.5,8.5,8.5s8.5-3.806,8.5-8.5
		v-5.742c1.13,0.529,2.36,0.821,3.611,0.821c1.47,0,2.959-0.382,4.317-1.184c4.041-2.389,5.381-7.601,2.993-11.643l-10.921-18.48
		v-8.671l7.621,4.136l11.034,18.412c1.593,2.659,4.41,4.132,7.299,4.132c1.487,0,2.993-0.391,4.361-1.21
		c2.501-1.499,3.951-4.081,4.114-6.786l5.032,2.731c1.289,0.699,2.677,1.031,4.047,1.031c3.016,0,5.938-1.61,7.478-4.447
		C353.564,392.853,352.034,387.693,347.908,385.454z"/>
</g>
<g>
</g>
<g>
</g>
<g>
</g>
<g>
</g>
<g>
</g>
<g>
</g>
<g>
</g>
<g>
</g>
<g>
</g>
<g>
</g>
<g>
</g>
<g>
</g>
<g>
</g>
<g>
</g>
<g>
</g>
</svg>
