<?xml version="1.0" encoding="iso-8859-1"?>
<!-- Generator: Adobe Illustrator 18.0.0, SVG Export Plug-In . SVG Version: 6.00 Build 0)  -->
<!DOCTYPE svg PUBLIC "-//W3C//DTD SVG 1.1//EN" "http://www.w3.org/Graphics/SVG/1.1/DTD/svg11.dtd">
<svg version="1.1" id="Capa_1" xmlns="http://www.w3.org/2000/svg" xmlns:xlink="http://www.w3.org/1999/xlink" x="0px" y="0px"
	 viewBox="0 0 466.342 466.342" style="enable-background:new 0 0 466.342 466.342;" xml:space="preserve">
<path d="M175.113,466.342c0.478,0,0.96-0.003,1.439-0.01c18.871-0.263,36.97-5.792,52.583-15.854
	c15.07,7.526,32.053,11.77,50.011,11.77c61.931,0,112.315-50.384,112.315-112.315c0-61.931-50.385-112.315-112.315-112.315
	c-10.034,0-19.762,1.33-29.025,3.81V59.677C250.12,26.771,223.349,0,190.442,0h-30.626c-32.906,0-59.677,26.771-59.677,59.677
	v239.88c-16.334,18.355-25.257,41.743-25.257,66.537c0,27.042,10.604,52.392,29.86,71.381
	C123.652,456.124,148.591,466.343,175.113,466.342z M130.139,59.677c0-16.364,13.313-29.677,29.677-29.677h30.626
	c16.364,0,29.678,13.313,29.678,29.677V254.42c-11.556,7.168-21.72,16.372-29.991,27.109V71.604c0-8.284-6.716-15-15-15
	s-15,6.716-15,15v268.702c-8.871,5.171-14.837,14.78-14.837,25.789c0,16.479,13.358,29.837,29.837,29.837
	c0.517,0,1.031-0.013,1.542-0.04c5.986,13.295,14.485,25.224,24.89,35.178c-7.893,3.267-16.472,5.141-25.427,5.266
	c-18.95,0.274-36.838-6.917-50.328-20.221c-13.494-13.307-20.925-31.071-20.925-50.021c0-18.89,7.392-36.615,20.813-49.91
	c2.844-2.817,4.444-6.654,4.444-10.657V59.677z M279.146,432.248c-45.389,0-82.315-36.926-82.315-82.315
	s36.926-82.315,82.315-82.315s82.315,36.927,82.315,82.315S324.534,432.248,279.146,432.248z"/>
<g>
	<polygon points="239.749,379.415 252.997,379.415 252.997,351.19 280.069,351.19 280.069,340.438 252.997,340.438 252.997,322.871 
		285.542,322.871 285.542,311.254 239.749,311.254 	"/>
	<path d="M322.567,333.966c-0.658-1.722-1.596-3.23-2.812-4.522s-2.698-2.318-4.446-3.078c-1.748-0.76-3.712-1.14-5.89-1.14
		c-2.23,0-4.218,0.38-5.966,1.14c-1.748,0.76-3.23,1.786-4.446,3.078s-2.141,2.8-2.774,4.522c-0.634,1.723-0.949,3.547-0.949,5.472
		c0,1.875,0.315,3.674,0.949,5.396c0.634,1.723,1.559,3.23,2.774,4.522s2.698,2.331,4.446,3.116
		c1.748,0.786,3.735,1.178,5.966,1.178c2.229,0,4.218-0.392,5.966-1.178c1.748-0.785,3.23-1.824,4.446-3.116s2.14-2.799,2.773-4.522
		c0.634-1.722,0.95-3.521,0.95-5.396C323.556,337.514,323.226,335.689,322.567,333.966z M314.094,345.063
		c-1.242,1.47-2.8,2.204-4.674,2.204c-1.875,0-3.446-0.722-4.712-2.166c-1.268-1.444-1.9-3.306-1.9-5.586
		c0-2.33,0.633-4.218,1.9-5.662c1.266-1.444,2.837-2.166,4.712-2.166c1.874,0,3.432,0.722,4.674,2.166
		c1.241,1.444,1.862,3.306,1.862,5.586C315.956,341.719,315.335,343.594,314.094,345.063z"/>
</g>
<g>
</g>
<g>
</g>
<g>
</g>
<g>
</g>
<g>
</g>
<g>
</g>
<g>
</g>
<g>
</g>
<g>
</g>
<g>
</g>
<g>
</g>
<g>
</g>
<g>
</g>
<g>
</g>
<g>
</g>
</svg>
