<?xml version="1.0" encoding="iso-8859-1"?>
<!-- Generator: Adobe Illustrator 18.0.0, SVG Export Plug-In . SVG Version: 6.00 Build 0)  -->
<!DOCTYPE svg PUBLIC "-//W3C//DTD SVG 1.1//EN" "http://www.w3.org/Graphics/SVG/1.1/DTD/svg11.dtd">
<svg version="1.1" id="Capa_1" xmlns="http://www.w3.org/2000/svg" xmlns:xlink="http://www.w3.org/1999/xlink" x="0px" y="0px"
	 viewBox="0 0 418.895 418.895" style="enable-background:new 0 0 418.895 418.895;" xml:space="preserve">
<g>
	<path d="M167.449,78.555h80c8.284,0,15-6.716,15-15V15c0-8.284-6.716-15-15-15h-80c-8.284,0-15,6.716-15,15v48.555
		C152.449,71.839,159.165,78.555,167.449,78.555z M182.449,30h50v18.555h-50V30z"/>
	<path d="M392.208,99.998l-25.615-25.615c-7.116-7.116-18.654-7.116-25.77,0l-5.417,5.417c-7.116,7.116-7.116,18.654,0,25.77
		l2.201,2.201l-25.787,25.788c-27.85-22.984-63.527-36.807-102.372-36.807s-74.522,13.822-102.372,36.807l-25.787-25.788
		l2.201-2.201c7.116-7.116,7.116-18.654,0-25.77l-5.417-5.417c-7.116-7.116-18.654-7.116-25.77,0L26.687,99.998
		c-7.116,7.116-7.116,18.654,0,25.77l5.417,5.417c7.116,7.116,18.654,7.116,25.77,0l2.201-2.201l25.73,25.73
		c-23.353,27.957-37.429,63.918-37.429,103.109c0,0.161,0.019,0.317,0.024,0.477H29.949c-6.919,0-10.384,8.365-5.491,13.257
		l33.427,33.427c3.033,3.033,7.95,3.033,10.983,0l8.994-8.995l24.433-24.433c4.892-4.892,1.427-13.257-5.491-13.257H78.352
		c0.005-0.16,0.024-0.316,0.024-0.477c0-72.272,58.798-131.071,131.071-131.071s131.071,58.799,131.071,131.071
		S281.72,388.895,209.447,388.895c-37.446,0-73.19-16.076-98.068-44.107c-4.252-4.792-10.882-6.2-16.537-4.055
		c-1.657,0.628-3.235,1.547-4.639,2.793c-6.196,5.499-6.761,14.979-1.262,21.176c30.566,34.44,74.489,54.193,120.505,54.193
		c88.815,0,161.071-72.256,161.071-161.071c0-39.191-14.076-75.152-37.429-103.109l25.73-25.73l2.201,2.201
		c7.116,7.116,18.654,7.116,25.77,0l5.417-5.417C399.324,118.652,399.324,107.114,392.208,99.998z"/>
	<path d="M223.798,293.387c2.929,2.929,6.768,4.394,10.606,4.394s7.678-1.465,10.606-4.394c5.858-5.857,5.858-15.355,0-21.213
		l-20.563-20.563v-88.358c0-8.284-6.716-15-15-15s-15,6.716-15,15v94.571c0,3.979,1.581,7.794,4.394,10.606L223.798,293.387z"/>
</g>
<g>
</g>
<g>
</g>
<g>
</g>
<g>
</g>
<g>
</g>
<g>
</g>
<g>
</g>
<g>
</g>
<g>
</g>
<g>
</g>
<g>
</g>
<g>
</g>
<g>
</g>
<g>
</g>
<g>
</g>
</svg>
